<svg version="1.1" xmlns="http://www.w3.org/2000/svg" xmlns:xlink="http://www.w3.org/1999/xlink">
    <defs>
        <symbol id="lighning" viewBox="0 0 25 32">
            <path
                d="M22.798 10.779c1.813-0.731 1.961-3.24 0.247-4.181l-11.488-6.302c-1-0.548-2.25-0.288-2.947 0.614l-8.043 10.398c-0.856 1.106-0.544 2.712 0.663 3.418l1.62 0.948c0.931 0.545 1.363 1.66 1.042 2.69l-3.191 10.234c-0.703 2.256 2.025 3.994 3.772 2.403l12.369-11.263c0.959-0.874 0.796-2.427-0.324-3.083-1.379-0.807-1.23-2.846 0.252-3.444l6.027-2.432z"></path>
        </symbol>
        <symbol id="burger" viewBox="0 0 47 32">
            <path d="M3 6.00092H21M3 12.0009H21M3 18.0009H21" stroke="#292929" stroke-width="2.5"
                stroke-linecap="round" stroke-linejoin="round" />
        </symbol>
        <symbol id="basket" viewBox="0 0 32 32">
            <path
                d="M27.999 8.731c-0.010-0.13-0.119-0.231-0.249-0.231h-4.75c-0.138 0-0.25 0.112-0.25 0.25s0.112 0.25 0.25 0.25h4.518l1.712 22.5h-26.46l1.712-22.5h4.518c0.138 0 0.25-0.112 0.25-0.25s-0.112-0.25-0.25-0.25h-4.75c-0.131 0-0.239 0.101-0.249 0.231l-1.75 23c-0.005 0.069 0.019 0.138 0.066 0.189s0.114 0.080 0.183 0.080h27c0.070 0 0.136-0.029 0.183-0.080s0.071-0.119 0.066-0.189l-1.75-23z"></path>
            <path
                d="M21.5 8.5h-11c-0.138 0-0.25 0.112-0.25 0.25s0.112 0.25 0.25 0.25h11c0.138 0 0.25-0.112 0.25-0.25s-0.112-0.25-0.25-0.25z"></path>
            <path
                d="M16 0c-3.998 0-7.25 3.252-7.25 7.25v5.75c0 0.552 0.448 1 1 1s1-0.448 1-1v-5.75c0-2.895 2.355-5.25 5.25-5.25s5.25 2.355 5.25 5.25v5.75c0 0.552 0.448 1 1 1s1-0.448 1-1v-5.75c0-3.998-3.252-7.25-7.25-7.25zM22.75 13c0 0.276-0.224 0.5-0.5 0.5s-0.5-0.224-0.5-0.5v-5.75c0-3.171-2.579-5.75-5.75-5.75s-5.75 2.579-5.75 5.75v5.75c0 0.276-0.224 0.5-0.5 0.5s-0.5-0.224-0.5-0.5v-5.75c0-3.722 3.028-6.75 6.75-6.75s6.75 3.028 6.75 6.75v5.75z"></path>
            <path
                d="M10.649 10.666c-0.128-0.049-0.274 0.014-0.323 0.143s0.014 0.273 0.143 0.323c0.766 0.295 1.281 1.046 1.281 1.867 0 1.103-0.897 2-2 2s-2-0.897-2-2c0-0.847 0.536-1.604 1.333-1.886 0.13-0.046 0.198-0.189 0.152-0.319s-0.189-0.199-0.319-0.152c-0.997 0.352-1.667 1.3-1.667 2.357 0 1.379 1.122 2.5 2.5 2.5s2.5-1.121 2.5-2.5c0-1.027-0.643-1.964-1.601-2.334z"></path>
            <path
                d="M23.148 10.666c-0.128-0.049-0.273 0.014-0.323 0.143s0.015 0.273 0.143 0.323c0.766 0.295 1.281 1.046 1.281 1.867 0 1.103-0.897 2-2 2s-2-0.897-2-2c0-0.847 0.536-1.604 1.333-1.886 0.13-0.046 0.198-0.189 0.152-0.319s-0.189-0.199-0.319-0.152c-0.997 0.352-1.666 1.3-1.666 2.357 0 1.379 1.122 2.5 2.5 2.5s2.5-1.121 2.5-2.5c0-1.027-0.643-1.964-1.602-2.334z"></path>
            <path
                d="M27.5 30.25h-24.75c-0.138 0-0.25 0.112-0.25 0.25s0.112 0.25 0.25 0.25h24.75c0.138 0 0.25-0.112 0.25-0.25s-0.112-0.25-0.25-0.25z"></path>
        </symbol>
        <symbol id="facebook" viewBox="0 0 32 32">
            <path
                d="M29 0h-26c-1.65 0-3 1.35-3 3v26c0 1.65 1.35 3 3 3h13v-14h-4v-4h4v-2c0-3.306 2.694-6 6-6h4v4h-4c-1.1 0-2 0.9-2 2v2h6l-1 4h-5v14h9c1.65 0 3-1.35 3-3v-26c0-1.65-1.35-3-3-3z"></path>
        </symbol>
        <symbol id="instagram" viewBox="0 0 32 32">
            <path
                d="M16 2.881c4.275 0 4.781 0.019 6.462 0.094 1.563 0.069 2.406 0.331 2.969 0.55 0.744 0.288 1.281 0.638 1.837 1.194 0.563 0.563 0.906 1.094 1.2 1.838 0.219 0.563 0.481 1.412 0.55 2.969 0.075 1.688 0.094 2.194 0.094 6.463s-0.019 4.781-0.094 6.463c-0.069 1.563-0.331 2.406-0.55 2.969-0.288 0.744-0.637 1.281-1.194 1.837-0.563 0.563-1.094 0.906-1.837 1.2-0.563 0.219-1.413 0.481-2.969 0.55-1.688 0.075-2.194 0.094-6.463 0.094s-4.781-0.019-6.463-0.094c-1.563-0.069-2.406-0.331-2.969-0.55-0.744-0.288-1.281-0.637-1.838-1.194-0.563-0.563-0.906-1.094-1.2-1.837-0.219-0.563-0.481-1.413-0.55-2.969-0.075-1.688-0.094-2.194-0.094-6.463s0.019-4.781 0.094-6.463c0.069-1.563 0.331-2.406 0.55-2.969 0.288-0.744 0.638-1.281 1.194-1.838 0.563-0.563 1.094-0.906 1.838-1.2 0.563-0.219 1.412-0.481 2.969-0.55 1.681-0.075 2.188-0.094 6.463-0.094zM16 0c-4.344 0-4.887 0.019-6.594 0.094-1.7 0.075-2.869 0.35-3.881 0.744-1.056 0.412-1.95 0.956-2.837 1.85-0.894 0.888-1.438 1.781-1.85 2.831-0.394 1.019-0.669 2.181-0.744 3.881-0.075 1.713-0.094 2.256-0.094 6.6s0.019 4.887 0.094 6.594c0.075 1.7 0.35 2.869 0.744 3.881 0.413 1.056 0.956 1.95 1.85 2.837 0.887 0.887 1.781 1.438 2.831 1.844 1.019 0.394 2.181 0.669 3.881 0.744 1.706 0.075 2.25 0.094 6.594 0.094s4.888-0.019 6.594-0.094c1.7-0.075 2.869-0.35 3.881-0.744 1.050-0.406 1.944-0.956 2.831-1.844s1.438-1.781 1.844-2.831c0.394-1.019 0.669-2.181 0.744-3.881 0.075-1.706 0.094-2.25 0.094-6.594s-0.019-4.887-0.094-6.594c-0.075-1.7-0.35-2.869-0.744-3.881-0.394-1.063-0.938-1.956-1.831-2.844-0.887-0.887-1.781-1.438-2.831-1.844-1.019-0.394-2.181-0.669-3.881-0.744-1.712-0.081-2.256-0.1-6.6-0.1v0z"></path>
            <path
                d="M16 7.781c-4.537 0-8.219 3.681-8.219 8.219s3.681 8.219 8.219 8.219 8.219-3.681 8.219-8.219c0-4.537-3.681-8.219-8.219-8.219zM16 21.331c-2.944 0-5.331-2.387-5.331-5.331s2.387-5.331 5.331-5.331c2.944 0 5.331 2.387 5.331 5.331s-2.387 5.331-5.331 5.331z"></path>
            <path
                d="M26.462 7.456c0 1.060-0.859 1.919-1.919 1.919s-1.919-0.859-1.919-1.919c0-1.060 0.859-1.919 1.919-1.919s1.919 0.859 1.919 1.919z"></path>
        </symbol>
        <symbol id="twitter" viewBox="0 0 32 32">
            <path
                d="M32 7.075c-1.175 0.525-2.444 0.875-3.769 1.031 1.356-0.813 2.394-2.1 2.887-3.631-1.269 0.75-2.675 1.3-4.169 1.594-1.2-1.275-2.906-2.069-4.794-2.069-3.625 0-6.563 2.938-6.563 6.563 0 0.512 0.056 1.012 0.169 1.494-5.456-0.275-10.294-2.888-13.531-6.862-0.563 0.969-0.887 2.1-0.887 3.3 0 2.275 1.156 4.287 2.919 5.463-1.075-0.031-2.087-0.331-2.975-0.819 0 0.025 0 0.056 0 0.081 0 3.181 2.263 5.838 5.269 6.437-0.55 0.15-1.131 0.231-1.731 0.231-0.425 0-0.831-0.044-1.237-0.119 0.838 2.606 3.263 4.506 6.131 4.563-2.25 1.762-5.075 2.813-8.156 2.813-0.531 0-1.050-0.031-1.569-0.094 2.913 1.869 6.362 2.95 10.069 2.95 12.075 0 18.681-10.006 18.681-18.681 0-0.287-0.006-0.569-0.019-0.85 1.281-0.919 2.394-2.075 3.275-3.394z"></path>
        </symbol>
    </defs>
</svg>